<svg version="1.1" viewBox="0.0 0.0 1024.0 1024.0" fill="none" stroke="none" stroke-linecap="square" stroke-miterlimit="10" xmlns:xlink="http://www.w3.org/1999/xlink" xmlns="http://www.w3.org/2000/svg"><clipPath id="p.0"><path d="m0 0l1024.0 0l0 1024.0l-1024.0 0l0 -1024.0z" clip-rule="nonzero"/></clipPath><g clip-path="url(#p.0)"><path fill="#000000" fill-opacity="0.0" d="m0 0l1024.0 0l0 1024.0l-1024.0 0z" fill-rule="evenodd"/><path fill="#000000" d="m0 0l1024.0 0l-1024.0 1024.0z" fill-rule="evenodd"/><path fill="#ffffff" d="m1024.0 1024.0l-1024.0 0l1024.0 -1024.0z" fill-rule="evenodd"/><path fill="#000000" d="m644.69604 458.43576l0 0c74.41205 0 134.73492 52.887726 134.73492 118.12802c0 65.240295 -60.322876 118.12799 -134.73492 118.12799l0 -59.064026c41.79193 0 75.6709 -26.443848 75.6709 -59.063965c0 -32.62018 -33.878967 -59.064026 -75.6709 -59.064026z" fill-rule="evenodd"/><path fill="#000000" d="m589.93396 458.0547l55.382202 0l0 515.10474l-55.382202 0z" fill-rule="evenodd"/><path fill="#ffffff" d="m655.43146 1002.4879l0 -242.88324l-75.61279 242.88324z" fill-rule="evenodd"/><path fill="#ffffff" d="m322.9597 201.96184l37.536835 0l0 381.44537l-37.536835 0z" fill-rule="evenodd"/><path fill="#ffffff" d="m323.01254 201.83214l35.128235 10.560715l-173.34383 371.14407l-35.12825 -10.56073z" fill-rule="evenodd"/><path fill="#ffffff" d="m149.52516 572.77246l35.64702 10.671875l-40.5383 -0.111206055z" fill-rule="evenodd"/><path fill="#ffffff" d="m330.4371 425.28918l0 30.088745l-91.41499 0l0 -30.088745z" fill-rule="evenodd"/><path fill="#000000" d="m363.62738 589.61707l0 -125.91333l-43.799164 125.91333z" fill-rule="evenodd"/><path fill="#ffffff" d="m409.6559 450.61893l-23.588013 3.6192932l116.39746 127.19531l23.588043 -3.6192627z" fill-rule="evenodd"/><path fill="#ffffff" d="m526.1498 577.7444l-23.93637 3.6574097l27.220795 -0.038085938z" fill-rule="evenodd"/><path fill="#ffffff" d="m383.5698 336.38058l25.51181 0l0 248.62991l-25.51181 0z" fill-rule="evenodd"/><path fill="#ffffff" d="m407.15723 470.78223l-23.588013 -3.6192932l116.39746 -127.19531l23.588013 3.6192932z" fill-rule="evenodd"/><path fill="#ffffff" d="m523.6511 343.65674l-23.936401 -3.6573792l27.220764 0.038116455z" fill-rule="evenodd"/><path fill="#000000" d="m488.1849 536.4362l-23.590546 3.6220093l37.858246 41.385864l23.590546 -3.6220703z" fill-rule="evenodd"/><path fill="#000000" d="m526.1498 577.7444l-23.93637 3.6574097l27.220795 -0.038085938z" fill-rule="evenodd"/><path fill="#ffffff" d="m492.11548 532.1155l-19.62204 19.653503l-10.330719 -10.330688l19.62207 -19.653564z" fill-rule="evenodd"/><path fill="#000000" d="m479.00528 504.81885l13.13385 14.236206l-10.740143 9.8897705l-13.133881 -14.236206z" fill-rule="evenodd"/><path fill="#000000" d="m487.11435 522.9889l-5.986145 -6.4885864l1.1149292 -1.0266724l5.986145 6.4885864l-1.1149292 1.0266724zm-2.9884949 2.751831l-5.986145 -6.4885864l1.1264343 -1.0372314l5.986145 6.4885864l-1.1264343 1.0372314z" fill-rule="nonzero"/><path fill="#000000" d="m455.02603 529.5197l18.992126 20.598389l-10.740173 9.8897705l-18.992126 -20.59845z" fill-rule="evenodd"/><path fill="#000000" d="m463.13098 547.6935l-5.9842224 -6.4903564l1.1149292 -1.0266724l5.9842224 6.4903564l-1.1149292 1.0266724zm-2.9884949 2.751892l-5.9842224 -6.4903564l1.1264343 -1.0372314l5.9842224 6.4903564l-1.1264343 1.0372314z" fill-rule="nonzero"/><path fill="#000000" d="m475.29922 521.88715l12.809723 14.614197l13.898926 -14.614197z" fill-rule="evenodd"/><path fill="#000000" d="m377.97113 598.2756l0 -107.02359l37.228333 107.02359z" fill-rule="evenodd"/><path fill="#000000" d="m814.4946 656.4955l20.837524 -32.055298l169.97089 0l-20.837524 32.055298z" fill-rule="evenodd"/><path stroke="#000000" stroke-width="1.0" stroke-linejoin="round" stroke-linecap="butt" d="m814.4946 656.4955l20.837524 -32.055298l169.97089 0l-20.837524 32.055298z" fill-rule="evenodd"/><path fill="#000000" d="m788.1903 846.1504l102.85547 -201.86877l47.88385 0l-102.85547 201.86877z" fill-rule="evenodd"/><path fill="#000000" d="m721.97144 875.1867l20.837524 -32.055298l169.97089 0l-20.837524 32.055298z" fill-rule="evenodd"/><path stroke="#000000" stroke-width="1.0" stroke-linejoin="round" stroke-linecap="butt" d="m721.97144 875.1867l20.837524 -32.055298l169.97089 0l-20.837524 32.055298z" fill-rule="evenodd"/></g></svg>