<svg version="1.1" viewBox="0.0 0.0 1024.0 1024.0" fill="none" stroke="none" stroke-linecap="square" stroke-miterlimit="10" xmlns:xlink="http://www.w3.org/1999/xlink" xmlns="http://www.w3.org/2000/svg"><clipPath id="p.0"><path d="m0 0l1024.0 0l0 1024.0l-1024.0 0l0 -1024.0z" clip-rule="nonzero"/></clipPath><g clip-path="url(#p.0)"><path fill="#000000" fill-opacity="0.0" d="m0 0l1024.0 0l0 1024.0l-1024.0 0z" fill-rule="evenodd"/><path fill="#000000" d="m0 0l1024.0 0l-1024.0 1024.0z" fill-rule="evenodd"/><path fill="#ffffff" d="m1024.0 1024.0l-1024.0 0l1024.0 -1024.0z" fill-rule="evenodd"/><path fill="#000000" d="m768.59143 398.79617l0 0c119.36157 0 216.12329 64.07556 216.12329 143.11679c0 79.04126 -96.76172 143.11682 -216.12329 143.11682l0 -71.55841c79.841 0 144.56488 -32.03778 144.56488 -71.55841c0 -39.5206 -64.72388 -71.55838 -144.56488 -71.55838z" fill-rule="evenodd"/><path fill="#000000" d="m680.7495 398.33444l88.83655 0l0 624.07007l-88.83655 0z" fill-rule="evenodd"/><path fill="#ffffff" d="m785.81165 1057.9371l0 -294.26276l-121.28766 294.26276z" fill-rule="evenodd"/><path fill="#ffffff" d="m374.63055 14.842085l75.938324 0l0 613.0036l-75.938324 0z" fill-rule="evenodd"/><path fill="#ffffff" d="m374.73752 14.633662l71.065674 16.971638l-350.68057 596.44885l-71.06567 -16.971619z" fill-rule="evenodd"/><path fill="#ffffff" d="m23.766577 610.75507l72.11515 17.150269l-82.010376 -0.1786499z" fill-rule="evenodd"/><path fill="#ffffff" d="m389.75763 373.74136l0 48.35428l-184.93564 0l0 -48.35428z" fill-rule="evenodd"/><path fill="#000000" d="m456.9027 637.82526l0 -202.34958l-88.60718 202.34958z" fill-rule="evenodd"/><path fill="#ffffff" d="m469.41348 668.4686l0 -114.17328l-114.17322 114.17328z" fill-rule="evenodd"/></g></svg>